<svg width="286" height="67" viewBox="0 0 286 67" fill="none" xmlns="http://www.w3.org/2000/svg">
<g clip-path="url(#clip0)">
<path d="M31.7791 15.5308H23.1426V50.4561H31.7791V15.5308Z" fill="white"/>
<path d="M52.5479 35.728C50.9777 33.3573 48.7157 31.8453 45.7621 31.1547V30.9493C48.6409 30.2027 50.6412 28.84 51.7815 26.8987C52.9218 24.9387 53.4826 22.6427 53.4826 19.9733C53.4826 17.9947 53.1648 16.1653 52.5105 14.4853C51.8563 12.8053 50.8094 11.3307 49.37 10.0613C47.9306 8.792 46.0612 7.80267 43.7619 7.09334C41.4626 6.36534 38.6772 6.01067 35.3871 6.01067H31.7792V3.696C31.7792 2.94934 31.9475 2.352 32.3027 1.904C32.6391 1.456 33.2934 1.23201 34.2655 1.23201V0H20.6939V1.23201C21.6473 1.23201 22.3015 1.456 22.6567 1.904C22.9932 2.352 23.1614 2.94934 23.1614 3.696V6.01067H0V7.24267C0.953374 7.24267 1.60765 7.46667 1.96283 7.91467C2.29932 8.36267 2.46756 8.96 2.46756 9.70669V56.3173C2.46756 57.064 2.29932 57.6613 1.96283 58.1093C1.62635 58.5573 0.972074 58.7813 0 58.7813V60.0133H23.1428V62.328C23.1428 63.0747 22.9745 63.672 22.638 64.12C22.3015 64.568 21.6473 64.792 20.6752 64.792V66.024H34.2468V64.792C33.2934 64.792 32.6391 64.568 32.284 64.12C31.9475 63.672 31.7605 63.0747 31.7605 62.328V60.0133H34.6394C41.8364 60.0133 47.0146 58.6507 50.1738 55.9067C53.3331 53.1627 54.9033 49.2987 54.9033 44.296C54.9033 40.936 54.1182 38.08 52.5479 35.728ZM44.3788 50.3627C42.6964 51.8747 40.2101 52.6213 36.92 52.6213H31.7792H23.1428H11.104V34.9627H19.8714V27.5707H11.104V13.4027H23.1428H31.7792H34.6581C38.565 13.4027 41.2756 13.9813 42.7898 15.1573C44.304 16.3147 45.0518 18.1067 45.0518 20.496C45.0518 22.8853 44.304 24.6773 42.7898 25.8347C41.3691 26.936 38.8641 27.5147 35.2937 27.5707V34.9627H36.9387C40.2288 34.9627 42.7151 35.7093 44.3975 37.2213C46.0799 38.7333 46.9211 40.9173 46.9211 43.792C46.9211 46.6667 46.0425 48.8507 44.3788 50.3627Z" fill="white"/>
<path d="M83.7852 40.992C84.1404 40.992 84.3647 40.936 84.4769 40.8053C84.5703 40.6747 84.6264 40.432 84.6264 40.04V27.9627C84.6264 27.5893 84.5703 27.328 84.4769 27.216C84.3834 27.0853 84.1404 27.0293 83.7852 27.0293V26.6187H87.5613V27.0293C87.2062 27.0293 86.9818 27.0853 86.8697 27.216C86.7762 27.3467 86.7201 27.5893 86.7201 27.9627V40.0587C86.7201 40.432 86.7762 40.6933 86.8697 40.824C86.9631 40.9547 87.2062 41.0107 87.5613 41.0107V41.4213H83.7852V40.992Z" fill="#EF5233"/>
<path d="M97.3939 40.0587C97.3939 40.432 97.45 40.6933 97.5434 40.824C97.6369 40.9547 97.8799 41.0107 98.2351 41.0107V41.4213H94.459V41.0107C94.8142 41.0107 95.0385 40.9547 95.1507 40.824C95.2441 40.6933 95.3002 40.4507 95.3002 40.0587V27.9627C95.3002 27.5893 95.2441 27.328 95.1507 27.216C95.0572 27.0853 94.8142 27.0293 94.459 27.0293V26.6187H104.759C106.236 26.6187 107.32 26.992 107.993 27.72C108.666 28.4667 109.002 29.4747 109.002 30.744C109.002 32.0507 108.647 33.0213 107.937 33.6933C107.226 34.3467 106.217 34.7013 104.927 34.7573L108.628 40.3947C108.778 40.6373 108.927 40.8053 109.04 40.88C109.152 40.9547 109.301 40.992 109.47 40.992V41.4027H105.843V40.992C106.086 40.992 106.236 40.9733 106.292 40.936C106.348 40.8987 106.385 40.824 106.385 40.712C106.385 40.6 106.348 40.488 106.292 40.3759C106.217 40.2639 106.142 40.1147 106.03 39.9093L102.74 34.7387H97.4313V40.0587H97.3939ZM104.553 32.872C105.357 32.872 105.936 32.6853 106.273 32.3307C106.609 31.976 106.778 31.416 106.778 30.688C106.778 29.8853 106.609 29.288 106.254 28.9147C105.899 28.5413 105.226 28.3547 104.217 28.3547H97.3939V32.8533H104.553V32.872Z" fill="#EF5233"/>
<path d="M117.939 40.0587C117.939 40.432 117.995 40.6933 118.088 40.824C118.182 40.9547 118.425 41.0107 118.78 41.0107V41.4213H115.004V41.0107C115.359 41.0107 115.583 40.9547 115.696 40.824C115.789 40.6933 115.845 40.4507 115.845 40.0587V27.9627C115.845 27.5893 115.789 27.328 115.696 27.216C115.602 27.0853 115.359 27.0293 115.004 27.0293V26.6187H125.304C126.781 26.6187 127.865 26.992 128.538 27.72C129.211 28.4667 129.548 29.4747 129.548 30.744C129.548 32.0507 129.192 33.0213 128.482 33.6933C127.772 34.3467 126.762 34.7013 125.472 34.7573L129.174 40.3947C129.323 40.6373 129.473 40.8053 129.585 40.88C129.697 40.9547 129.847 40.992 130.015 40.992V41.4027H126.388V40.992C126.631 40.992 126.781 40.9733 126.837 40.936C126.893 40.8987 126.931 40.824 126.931 40.712C126.931 40.6 126.893 40.488 126.837 40.3759C126.762 40.2639 126.687 40.1147 126.575 39.9093L123.285 34.7387H117.976V40.0587H117.939ZM125.117 32.872C125.921 32.872 126.501 32.6853 126.837 32.3307C127.174 31.976 127.342 31.416 127.342 30.688C127.342 29.8853 127.174 29.288 126.818 28.9147C126.463 28.5413 125.79 28.3547 124.781 28.3547H117.958V32.8533H125.117V32.872Z" fill="#EF5233"/>
<path d="M136.352 27.9626C136.352 27.5893 136.296 27.3279 136.203 27.2159C136.109 27.0853 135.885 27.0293 135.586 27.0293V26.6186H149.139C149.475 26.6186 149.699 26.5626 149.812 26.4319C149.924 26.3012 149.98 26.0959 149.98 25.8159H150.391V29.3066H149.98C149.98 29.0079 149.924 28.8026 149.812 28.6906C149.699 28.5599 149.475 28.5039 149.139 28.5039H138.577V32.8719H146.017C146.353 32.8719 146.578 32.8159 146.69 32.6852C146.802 32.5546 146.858 32.3493 146.858 32.0693H147.269V35.5599H146.858C146.858 35.2613 146.802 35.0559 146.69 34.9439C146.578 34.8132 146.353 34.7572 146.017 34.7572H138.577V39.5359H149.512C149.849 39.5359 150.073 39.4799 150.185 39.3492C150.298 39.2186 150.354 39.0133 150.354 38.7333H150.765V42.1306H150.354C150.354 41.8319 150.298 41.6452 150.185 41.5519C150.073 41.4586 149.849 41.4213 149.512 41.4213H135.586V41.0106C135.903 41.0106 136.109 40.9546 136.203 40.8239C136.296 40.6932 136.352 40.4506 136.352 40.0586V27.9626Z" fill="#EF5233"/>
<path d="M157.551 26.6188V27.0295C157.345 27.0108 157.177 27.0481 157.009 27.1228C156.859 27.2161 156.766 27.3655 156.766 27.5895C156.766 27.7015 156.803 27.8321 156.896 28.0001C156.99 28.1495 157.065 28.3175 157.139 28.5041L161.925 38.6775L166.299 28.2241C166.337 28.1121 166.393 27.9815 166.43 27.8508C166.468 27.7201 166.505 27.6081 166.505 27.5148C166.505 27.1788 166.262 27.0108 165.757 27.0108V26.6001H169.197V27.0108C168.898 27.0108 168.673 27.1975 168.524 27.5521L163.383 39.7415C163.346 39.8535 163.29 39.9841 163.215 40.1521C163.14 40.3015 163.121 40.4508 163.121 40.5628C163.121 40.8801 163.364 41.0295 163.869 40.9921V41.4028H159.962V40.9921C160.373 40.9921 160.56 40.8988 160.56 40.6935C160.56 40.5628 160.523 40.3948 160.43 40.1708C160.336 39.9655 160.224 39.6855 160.056 39.3495L154.597 27.6828C154.485 27.4588 154.354 27.2908 154.205 27.1788C154.055 27.0668 153.849 27.0108 153.588 27.0108V26.6001H157.551V26.6188Z" fill="#EF5233"/>
<path d="M180.094 26.4133C181.403 26.4133 182.562 26.6186 183.609 27.0106C184.656 27.4026 185.553 27.9626 186.282 28.6346C187.03 29.3253 187.591 30.1279 187.983 31.0426C188.376 31.9573 188.563 32.9466 188.563 33.9919C188.563 35.0373 188.357 36.0266 187.983 36.9413C187.591 37.8559 187.03 38.6586 186.282 39.3493C185.534 40.0399 184.656 40.5626 183.609 40.9359C182.562 41.3093 181.384 41.4959 180.094 41.4959C178.786 41.4959 177.627 41.3093 176.58 40.9359C175.533 40.5626 174.654 40.0399 173.907 39.3493C173.159 38.6586 172.598 37.8746 172.206 36.9413C171.813 36.0266 171.607 35.0373 171.607 33.9919C171.607 32.9466 171.794 31.9573 172.206 31.0426C172.598 30.1279 173.159 29.3253 173.907 28.6346C174.654 27.9439 175.533 27.4026 176.58 27.0106C177.627 26.6186 178.786 26.4133 180.094 26.4133ZM180.094 28.2986C179.122 28.2986 178.262 28.4479 177.477 28.7279C176.711 29.0266 176.038 29.4186 175.514 29.9413C174.972 30.4639 174.561 31.0613 174.262 31.7519C173.963 32.4426 173.832 33.1893 173.832 33.9733C173.832 34.7759 173.982 35.5226 174.262 36.2319C174.561 36.9226 174.972 37.5386 175.514 38.0426C176.057 38.5653 176.711 38.9759 177.477 39.2746C178.244 39.5733 179.122 39.7226 180.094 39.7226C181.066 39.7226 181.926 39.5733 182.693 39.2746C183.459 38.9759 184.132 38.5653 184.656 38.0426C185.198 37.5199 185.609 36.9226 185.908 36.2319C186.207 35.5413 186.338 34.7946 186.338 33.9733C186.338 33.1893 186.188 32.4426 185.908 31.7519C185.609 31.0613 185.198 30.4453 184.656 29.9413C184.113 29.4186 183.459 29.0266 182.693 28.7279C181.926 28.4479 181.066 28.2986 180.094 28.2986Z" fill="#EF5233"/>
<path d="M205.201 30.7813C205.238 30.6506 205.276 30.5573 205.276 30.5199V30.2213C205.276 30.0906 205.126 29.9226 204.846 29.6986C204.547 29.4933 204.173 29.2693 203.687 29.0639C203.201 28.8586 202.659 28.6719 202.079 28.5226C201.481 28.3733 200.883 28.2986 200.285 28.2986C199.313 28.2986 198.453 28.4479 197.686 28.7466C196.92 29.0453 196.265 29.4559 195.742 29.9973C195.2 30.5199 194.789 31.1359 194.508 31.8266C194.228 32.5173 194.097 33.2639 194.097 34.0479C194.097 34.8319 194.228 35.5599 194.508 36.2319C194.789 36.9039 195.2 37.4826 195.723 37.9679C196.247 38.4533 196.864 38.8266 197.593 39.1066C198.303 39.3866 199.107 39.5173 199.986 39.5173C200.864 39.5173 201.631 39.4239 202.322 39.2559C203.014 39.0693 203.593 38.8639 204.061 38.6026C204.528 38.3413 204.883 38.0799 205.145 37.8373C205.388 37.5759 205.519 37.3893 205.519 37.2586C205.519 37.0159 205.481 36.7919 205.388 36.5866L205.724 36.3813L208.08 39.4799L207.706 39.7413C207.519 39.6106 207.388 39.5173 207.295 39.4799C207.201 39.4426 207.127 39.4239 207.052 39.4239C206.846 39.4239 206.566 39.5359 206.229 39.7599C205.874 39.9839 205.425 40.2266 204.865 40.5066C204.304 40.7679 203.631 41.0106 202.864 41.2159C202.098 41.4213 201.163 41.5146 200.098 41.5146C198.957 41.5146 197.873 41.3653 196.882 41.0666C195.892 40.7679 195.013 40.3013 194.284 39.6479C193.536 39.0133 192.957 38.2293 192.527 37.2773C192.097 36.3439 191.891 35.2613 191.891 34.0479C191.891 32.8346 192.115 31.7706 192.545 30.8186C192.975 29.8666 193.574 29.0826 194.34 28.4293C195.106 27.7759 195.985 27.2906 196.995 26.9359C198.004 26.5813 199.088 26.4133 200.229 26.4133C201.201 26.4133 201.986 26.4693 202.621 26.5813C203.257 26.6933 203.893 26.8799 204.565 27.1226C205.014 27.2719 205.388 27.4213 205.668 27.5519C205.968 27.6826 206.192 27.7573 206.341 27.7573C206.528 27.7573 206.697 27.6266 206.884 27.3839L207.295 27.5146L205.65 30.9679L205.201 30.7813Z" fill="#EF5233"/>
<path d="M209.705 40.9921C210.06 40.9921 210.303 40.9175 210.434 40.7495C210.565 40.6001 210.677 40.3948 210.789 40.1521L216.098 27.9815C216.21 27.7201 216.267 27.5148 216.267 27.4028C216.267 27.2908 216.21 27.1975 216.08 27.1041C215.949 27.0108 215.743 26.9548 215.425 26.9361V26.6001H220.884V27.0108C220.697 27.0108 220.529 27.0481 220.36 27.1041C220.192 27.1601 220.117 27.2721 220.117 27.4215C220.117 27.5335 220.136 27.6455 220.211 27.7575C220.267 27.8695 220.323 27.9815 220.36 28.0935L226.118 40.3201C226.193 40.4695 226.286 40.6375 226.417 40.7681C226.548 40.9175 226.791 40.9921 227.165 40.9921V41.4028H222.921V40.9921C223.333 40.9921 223.594 40.9548 223.725 40.8988C223.856 40.8241 223.931 40.7308 223.931 40.6001C223.931 40.4508 223.912 40.3015 223.856 40.1895C223.819 40.0775 223.763 39.9655 223.725 39.8535L222.342 37.0348H214.173L213.033 39.5921C212.939 39.7975 212.846 39.9841 212.752 40.1708C212.659 40.3575 212.603 40.4881 212.603 40.6001C212.603 40.7308 212.677 40.8428 212.808 40.8988C212.939 40.9735 213.182 40.9921 213.519 40.9921V41.4028H209.705V40.9921ZM214.921 35.1495H221.482L218.08 28.0935L214.921 35.1495Z" fill="#EF5233"/>
<path d="M231.41 27.9627C231.41 27.5893 231.354 27.328 231.26 27.216C231.167 27.0853 230.924 27.0293 230.568 27.0293V26.6187H239.897C241.785 26.6187 243.112 26.9547 243.897 27.6267C244.682 28.2987 245.075 29.3067 245.075 30.6507C245.075 30.9493 245.037 31.2293 244.963 31.5467C244.888 31.8453 244.757 32.1253 244.57 32.4053C244.383 32.6667 244.159 32.8907 243.841 33.0773C243.542 33.264 243.168 33.3759 242.719 33.4132V33.488C243.579 33.6373 244.252 34.048 244.776 34.7013C245.299 35.3547 245.542 36.176 245.542 37.184C245.542 38.6587 245.112 39.7413 244.252 40.4132C243.392 41.0852 241.953 41.4213 239.934 41.4213H230.587V41.0107C230.942 41.0107 231.185 40.9547 231.279 40.824C231.372 40.6933 231.428 40.4507 231.428 40.0587V27.9627H231.41ZM239.822 32.6667C240.476 32.6667 240.999 32.6293 241.392 32.536C241.785 32.4427 242.084 32.312 242.327 32.1253C242.551 31.9387 242.701 31.7147 242.757 31.4533C242.831 31.192 242.85 30.8747 242.85 30.5387C242.85 29.848 242.626 29.3067 242.196 28.9333C241.766 28.56 240.962 28.3547 239.822 28.3547H233.634V32.648H239.822V32.6667ZM240.196 39.5173C240.831 39.5173 241.336 39.4799 241.729 39.3867C242.121 39.2933 242.42 39.144 242.644 38.9573C242.85 38.752 243 38.4907 243.074 38.192C243.149 37.8747 243.187 37.5013 243.187 37.0533C243.187 36.1947 242.962 35.5787 242.514 35.168C242.065 34.7573 241.261 34.5707 240.083 34.5707H233.634V39.536H240.196V39.5173Z" fill="#EF5233"/>
<path d="M265.824 42.0373C265.824 41.7947 265.768 41.6267 265.656 41.5333C265.544 41.44 265.32 41.4027 264.983 41.4027H251.486V40.992C251.842 40.992 252.066 40.936 252.178 40.8053C252.271 40.6747 252.328 40.432 252.328 40.04V27.9627C252.328 27.5893 252.271 27.328 252.178 27.216C252.085 27.0853 251.842 27.0293 251.486 27.0293V26.6187H255.262V27.0293C254.907 27.0293 254.664 27.0853 254.571 27.216C254.477 27.3467 254.421 27.5893 254.421 27.9627V39.5173H264.983C265.32 39.5173 265.544 39.4427 265.656 39.2933C265.768 39.144 265.824 38.8827 265.824 38.5093H266.236V42.0373H265.824Z" fill="#EF5233"/>
<path d="M270.983 27.9626C270.983 27.5893 270.927 27.3279 270.834 27.2159C270.74 27.0853 270.516 27.0293 270.217 27.0293V26.6186H283.77C284.106 26.6186 284.331 26.5626 284.443 26.4319C284.555 26.3012 284.611 26.0959 284.611 25.8159H285.022V29.3066H284.611C284.611 29.0079 284.555 28.8026 284.443 28.6906C284.331 28.5599 284.106 28.5039 283.77 28.5039H273.208V32.8719H280.648C280.984 32.8719 281.209 32.8159 281.321 32.6852C281.433 32.5546 281.489 32.3493 281.489 32.0693H281.9V35.5599H281.489C281.489 35.2613 281.433 35.0559 281.321 34.9439C281.209 34.8132 280.984 34.7572 280.648 34.7572H273.208V39.5359H284.144C284.48 39.5359 284.704 39.4799 284.817 39.3492C284.929 39.2186 284.985 39.0133 284.985 38.7333H285.396V42.1306H284.985C284.985 41.8319 284.929 41.6452 284.817 41.5519C284.704 41.4586 284.48 41.4213 284.144 41.4213H270.217V41.0106C270.535 41.0106 270.74 40.9546 270.834 40.8239C270.927 40.6932 270.983 40.4506 270.983 40.0586V27.9626Z" fill="#EF5233"/>
</g>
<defs>
<clipPath id="clip0">
<rect width="285.397" height="66.024" fill="white"/>
</clipPath>
</defs>
</svg>
